<?xml version="1.0" encoding="UTF-8"?>
<svg xmlns="http://www.w3.org/2000/svg" viewBox="0 0 841.89 595.28">
  <g id="Layer_1" data-name="Layer 1">
    <rect width="841.89" height="595.28" style="fill: #aeadad;"/>
  </g>
  <g id="Layer_2" data-name="Layer 2">
    <g>
      <path d="M56.24,232.81h24.3v105h-24.3v-105Z" style="fill: none; stroke: #fff; stroke-miterlimit: 10; stroke-width: 2px;"/>
      <path d="M186.28,291.61v46.2h-23.4v-42.6c0-13.05-6-19.05-16.35-19.05-11.25,0-19.35,6.9-19.35,21.75v39.9h-23.4v-80.7h22.35v9.45c6.3-6.9,15.75-10.65,26.7-10.65,19.05,0,33.45,11.1,33.45,35.7Z" style="fill: none; stroke: #fff; stroke-miterlimit: 10; stroke-width: 2px;"/>
      <path d="M347.08,337.81l-.15-63-30.9,51.9h-10.95l-30.75-50.55v61.65h-22.8v-105h20.1l39.3,65.25,38.7-65.25h19.95l.3,105h-22.8Z" style="fill: none; stroke: #fff; stroke-miterlimit: 10; stroke-width: 2px;"/>
      <path d="M387.13,297.46c0-24.3,18.75-41.55,44.4-41.55s44.25,17.25,44.25,41.55-18.6,41.55-44.25,41.55-44.4-17.25-44.4-41.55Zm64.95,0c0-13.95-8.85-22.35-20.55-22.35s-20.7,8.4-20.7,22.35,9,22.35,20.7,22.35,20.55-8.4,20.55-22.35Z" style="fill: none; stroke: #fff; stroke-miterlimit: 10; stroke-width: 2px;"/>
      <path d="M543.43,333.91c-4.8,3.45-11.85,5.1-19.05,5.1-19.05,0-30.15-9.75-30.15-28.95v-33.15h-12.45v-18h12.45v-19.65h23.4v19.65h20.1v18h-20.1v32.85c0,6.9,3.75,10.65,10.05,10.65,3.45,0,6.9-1.05,9.45-3l6.3,16.5Z" style="fill: none; stroke: #fff; stroke-miterlimit: 10; stroke-width: 2px;"/>
      <path d="M553.78,232.81c0-7.35,5.85-13.05,14.55-13.05s14.55,5.4,14.55,12.6c0,7.8-5.85,13.5-14.55,13.5s-14.55-5.7-14.55-13.05Zm2.85,24.3h23.4v80.7h-23.4v-80.7Z" style="fill: none; stroke: #fff; stroke-miterlimit: 10; stroke-width: 2px;"/>
      <path d="M595.78,297.46c0-24.3,18.75-41.55,44.4-41.55s44.25,17.25,44.25,41.55-18.6,41.55-44.25,41.55-44.4-17.25-44.4-41.55Zm64.95,0c0-13.95-8.85-22.35-20.55-22.35s-20.7,8.4-20.7,22.35,9,22.35,20.7,22.35,20.55-8.4,20.55-22.35Z" style="fill: none; stroke: #fff; stroke-miterlimit: 10; stroke-width: 2px;"/>
      <path d="M782.53,291.61v46.2h-23.4v-42.6c0-13.05-6-19.05-16.35-19.05-11.25,0-19.35,6.9-19.35,21.75v39.9h-23.4v-80.7h22.35v9.45c6.3-6.9,15.75-10.65,26.7-10.65,19.05,0,33.45,11.1,33.45,35.7Z" style="fill: none; stroke: #fff; stroke-miterlimit: 10; stroke-width: 2px;"/>
    </g>
  </g>
</svg>